<svg
  id="hY9ItBcLE"
  viewBox="0 0 370.00000000000006 79.75488829757315"
  height="79.75488829757315"
  width="370.00000000000006"
  className="font-bold lg:text-2xl md:text-xl xs:text-base stroke-black dark:stroke-white fill-black dark:fill-white no-underline relative transition-all duration-350 ease-in-out w-60 xs:w-72 "
>
  <defs id="SvgjsDefs1011"></defs>
  <g
    id="SvgjsG1012"
    transform="matrix(0.5785869649938441,0,0,0.5785869649938441,-17.651300147032973,-12.773897933794556)"
  >
    <path
      xmlns="http://www.w3.org/2000/svg"
      d="M123.884 72.328C123.884 77.4837 119.705 81.6633 114.549 81.6633C109.393 81.6633 105.214 77.4837 105.214 72.328C105.214 67.1723 109.393 62.9928 114.549 62.9928C119.705 62.9928 123.884 67.1723 123.884 72.328Z"
    ></path>
    <path
      xmlns="http://www.w3.org/2000/svg"
      fillRule="evenodd"
      clipRule="evenodd"
      d="M87.9998 22.8816C89.8563 21.8098 92.1434 21.8098 93.9998 22.8816L148.492 54.3427C150.349 55.4145 151.492 57.3953 151.492 59.5389V122.461C151.492 124.605 150.349 126.586 148.492 127.657L93.9998 159.118C92.1434 160.19 89.8563 160.19 87.9998 159.118L33.5076 127.657C31.6512 126.586 30.5076 124.605 30.5076 122.461V59.5389C30.5076 57.3953 31.6512 55.4145 33.5076 54.3427L87.9998 22.8816ZM42.5076 111.724V118.997L90.9998 146.994L129.444 124.799L115.139 107.005L103.129 116.957C100.069 119.492 95.5157 118.975 93.1021 115.819L71.5292 87.6079L42.5076 111.724ZM42.5076 96.122L67.8643 75.0509C70.9232 72.509 75.4827 73.0232 77.8987 76.1825L99.4761 104.399L111.39 94.5274C114.398 92.035 118.864 92.487 121.312 95.5316L139.492 118.146V63.003L90.9998 35.006L42.5076 63.003V96.122Z"
    ></path>
  </g>
</svg>